<mxfile host="app.diagrams.net" modified="2024-04-11T15:55:10.137Z" agent="Mozilla/5.0 (Windows NT 10.0; Win64; x64; rv:124.0) Gecko/20100101 Firefox/124.0" etag="PU62iO7u7KS7IDqGMBHT" version="24.2.3" type="github">
  <diagram name="Page-1" id="74e2e168-ea6b-b213-b513-2b3c1d86103e">
    <mxGraphModel dx="1050" dy="1408" grid="1" gridSize="10" guides="1" tooltips="1" connect="1" arrows="1" fold="1" page="1" pageScale="1" pageWidth="1100" pageHeight="850" background="none" math="0" shadow="0">
      <root>
        <mxCell id="0" />
        <mxCell id="1" parent="0" />
        <mxCell id="30qe_J9NKFVEsOAsfhaR-26" style="edgeStyle=orthogonalEdgeStyle;rounded=0;orthogonalLoop=1;jettySize=auto;html=1;exitX=1;exitY=0.5;exitDx=0;exitDy=0;" edge="1" parent="1" source="30qe_J9NKFVEsOAsfhaR-1" target="30qe_J9NKFVEsOAsfhaR-7">
          <mxGeometry relative="1" as="geometry">
            <Array as="points">
              <mxPoint x="300" y="90" />
              <mxPoint x="300" y="160" />
            </Array>
          </mxGeometry>
        </mxCell>
        <mxCell id="30qe_J9NKFVEsOAsfhaR-1" value="&lt;div&gt;Splunk Server&lt;/div&gt;&lt;div&gt;192.168.10.10&lt;/div&gt;" style="image;aspect=fixed;perimeter=ellipsePerimeter;html=1;align=center;shadow=0;dashed=0;spacingTop=3;image=img/lib/active_directory/generic_server.svg;" vertex="1" parent="1">
          <mxGeometry x="100" y="50" width="44.8" height="80" as="geometry" />
        </mxCell>
        <mxCell id="30qe_J9NKFVEsOAsfhaR-25" style="edgeStyle=orthogonalEdgeStyle;rounded=0;orthogonalLoop=1;jettySize=auto;html=1;exitX=0.5;exitY=0;exitDx=0;exitDy=0;entryX=0.5;entryY=1;entryDx=0;entryDy=0;dashed=1;dashPattern=12 12;fillColor=#d5e8d4;strokeColor=#82b366;" edge="1" parent="1" source="30qe_J9NKFVEsOAsfhaR-2" target="30qe_J9NKFVEsOAsfhaR-1">
          <mxGeometry relative="1" as="geometry" />
        </mxCell>
        <mxCell id="30qe_J9NKFVEsOAsfhaR-27" style="edgeStyle=orthogonalEdgeStyle;rounded=0;orthogonalLoop=1;jettySize=auto;html=1;exitX=1;exitY=0.5;exitDx=0;exitDy=0;" edge="1" parent="1" source="30qe_J9NKFVEsOAsfhaR-2" target="30qe_J9NKFVEsOAsfhaR-7">
          <mxGeometry relative="1" as="geometry">
            <Array as="points">
              <mxPoint x="300" y="240" />
              <mxPoint x="300" y="160" />
            </Array>
          </mxGeometry>
        </mxCell>
        <mxCell id="30qe_J9NKFVEsOAsfhaR-2" value="&lt;div&gt;Active Directory&lt;/div&gt;&lt;div&gt;192.168.10.7&lt;/div&gt;&lt;div&gt;Splunk Universal Forwarder&lt;/div&gt;&lt;div&gt;Sysmon&lt;br&gt;&lt;/div&gt;" style="image;aspect=fixed;perimeter=ellipsePerimeter;html=1;align=center;shadow=0;dashed=0;spacingTop=3;image=img/lib/active_directory/generic_server.svg;" vertex="1" parent="1">
          <mxGeometry x="100" y="200" width="44.8" height="80" as="geometry" />
        </mxCell>
        <mxCell id="30qe_J9NKFVEsOAsfhaR-28" style="edgeStyle=orthogonalEdgeStyle;rounded=0;orthogonalLoop=1;jettySize=auto;html=1;exitX=0;exitY=0.5;exitDx=0;exitDy=0;exitPerimeter=0;" edge="1" parent="1" source="30qe_J9NKFVEsOAsfhaR-5" target="30qe_J9NKFVEsOAsfhaR-7">
          <mxGeometry relative="1" as="geometry" />
        </mxCell>
        <mxCell id="30qe_J9NKFVEsOAsfhaR-5" value="&lt;div&gt;Kali Linux&lt;br&gt;&lt;/div&gt;&lt;div&gt;192.168.10.250&lt;br&gt;&lt;/div&gt;" style="verticalLabelPosition=bottom;html=1;verticalAlign=top;align=center;strokeColor=#b85450;fillColor=#f8cecc;shape=mxgraph.azure.computer;pointerEvents=1;" vertex="1" parent="1">
          <mxGeometry x="810" y="137.5" width="50" height="45" as="geometry" />
        </mxCell>
        <mxCell id="30qe_J9NKFVEsOAsfhaR-20" style="edgeStyle=orthogonalEdgeStyle;rounded=0;orthogonalLoop=1;jettySize=auto;html=1;exitX=1;exitY=0.5;exitDx=0;exitDy=0;exitPerimeter=0;" edge="1" parent="1" source="30qe_J9NKFVEsOAsfhaR-6" target="30qe_J9NKFVEsOAsfhaR-7">
          <mxGeometry relative="1" as="geometry" />
        </mxCell>
        <mxCell id="30qe_J9NKFVEsOAsfhaR-6" value="&lt;div&gt;Windows 10&lt;/div&gt;&lt;div&gt;DHCP&lt;/div&gt;&lt;div&gt;Splunk Universal Forwarder&lt;/div&gt;&lt;div&gt;Sysmon&lt;/div&gt;&lt;div&gt;Atomic Red Team&lt;br&gt;&lt;/div&gt;" style="verticalLabelPosition=bottom;html=1;verticalAlign=top;align=center;strokeColor=none;fillColor=#00BEF2;shape=mxgraph.azure.computer;pointerEvents=1;" vertex="1" parent="1">
          <mxGeometry x="320" y="350" width="50" height="45" as="geometry" />
        </mxCell>
        <mxCell id="30qe_J9NKFVEsOAsfhaR-29" style="edgeStyle=orthogonalEdgeStyle;rounded=0;orthogonalLoop=1;jettySize=auto;html=1;exitX=0.5;exitY=0;exitDx=0;exitDy=0;" edge="1" parent="1" source="30qe_J9NKFVEsOAsfhaR-7" target="30qe_J9NKFVEsOAsfhaR-9">
          <mxGeometry relative="1" as="geometry" />
        </mxCell>
        <mxCell id="30qe_J9NKFVEsOAsfhaR-7" value="" style="image;html=1;image=img/lib/clip_art/networking/Switch_128x128.png" vertex="1" parent="1">
          <mxGeometry x="459.99999999999994" y="120" width="80" height="80" as="geometry" />
        </mxCell>
        <mxCell id="30qe_J9NKFVEsOAsfhaR-9" value="" style="image;html=1;image=img/lib/clip_art/networking/Router_128x128.png" vertex="1" parent="1">
          <mxGeometry x="460" y="30" width="80" height="80" as="geometry" />
        </mxCell>
        <mxCell id="30qe_J9NKFVEsOAsfhaR-10" value="" style="image;aspect=fixed;perimeter=ellipsePerimeter;html=1;align=center;shadow=0;dashed=0;spacingTop=3;image=img/lib/active_directory/internet_cloud.svg;" vertex="1" parent="1">
          <mxGeometry x="453" y="-80" width="96.83" height="61" as="geometry" />
        </mxCell>
        <mxCell id="30qe_J9NKFVEsOAsfhaR-22" value="Text" style="text;html=1;align=center;verticalAlign=middle;whiteSpace=wrap;rounded=0;" vertex="1" parent="1">
          <mxGeometry x="510" y="190" width="60" height="30" as="geometry" />
        </mxCell>
        <mxCell id="30qe_J9NKFVEsOAsfhaR-23" value="&lt;div&gt;Domain : mfaustino4786&lt;/div&gt;&lt;div&gt;Network: 192.168.10.0/24&lt;/div&gt;&lt;div&gt;Splunk: 192.168.10.10&lt;/div&gt;&lt;div&gt;Active Directory: 192.168.10.7&lt;/div&gt;&lt;div&gt;Attacker: 192.168.10.250&lt;/div&gt;" style="text;html=1;align=center;verticalAlign=middle;resizable=0;points=[];autosize=1;strokeColor=none;fillColor=none;" vertex="1" parent="1">
          <mxGeometry x="720" y="300" width="180" height="90" as="geometry" />
        </mxCell>
        <mxCell id="30qe_J9NKFVEsOAsfhaR-24" style="rounded=0;orthogonalLoop=1;jettySize=auto;html=1;exitX=0;exitY=0.5;exitDx=0;exitDy=0;exitPerimeter=0;entryX=0.223;entryY=0.625;entryDx=0;entryDy=0;entryPerimeter=0;dashed=1;dashPattern=12 12;fillColor=#d5e8d4;strokeColor=#00FF00;" edge="1" parent="1" source="30qe_J9NKFVEsOAsfhaR-6" target="30qe_J9NKFVEsOAsfhaR-1">
          <mxGeometry relative="1" as="geometry" />
        </mxCell>
        <mxCell id="30qe_J9NKFVEsOAsfhaR-30" style="edgeStyle=orthogonalEdgeStyle;rounded=0;orthogonalLoop=1;jettySize=auto;html=1;exitX=0.5;exitY=0;exitDx=0;exitDy=0;entryX=0.485;entryY=0.82;entryDx=0;entryDy=0;entryPerimeter=0;" edge="1" parent="1" source="30qe_J9NKFVEsOAsfhaR-9" target="30qe_J9NKFVEsOAsfhaR-10">
          <mxGeometry relative="1" as="geometry" />
        </mxCell>
      </root>
    </mxGraphModel>
  </diagram>
</mxfile>
